<?xml version="1.0" encoding="UTF-8" standalone="no"?>
<svg
   width="64"
   height="64"
   viewBox="0 0 64 64"
   fill="none"
   version="1.1"
   id="svg3"
   sodipodi:docname="rotur-symbolic.svg"
   inkscape:version="1.4.3 (0d15f75042, 2025-12-25)"
   xmlns:inkscape="http://www.inkscape.org/namespaces/inkscape"
   xmlns:sodipodi="http://sodipodi.sourceforge.net/DTD/sodipodi-0.dtd"
   xmlns="http://www.w3.org/2000/svg"
   xmlns:svg="http://www.w3.org/2000/svg">
  <defs
     id="defs3" />
  <sodipodi:namedview
     id="namedview3"
     pagecolor="#505050"
     bordercolor="#eeeeee"
     borderopacity="1"
     inkscape:showpageshadow="0"
     inkscape:pageopacity="0"
     inkscape:pagecheckerboard="0"
     inkscape:deskcolor="#505050"
     inkscape:zoom="12.75"
     inkscape:cx="32"
     inkscape:cy="32"
     inkscape:window-width="2560"
     inkscape:window-height="1022"
     inkscape:window-x="0"
     inkscape:window-y="0"
     inkscape:window-maximized="1"
     inkscape:current-layer="svg3" />
  <path
     style="baseline-shift:baseline;display:inline;overflow:visible;vector-effect:none;fill:currentColor;enable-background:accumulate;stop-color:currentColor;stop-opacity:1;opacity:1"
     d="m 41.142578,14.083984 c -3.786823,-0.198216 -7.842085,0.0326 -12.009766,0.736329 -8.335363,1.407461 -15.578508,4.444918 -20.679687,8.384765 -5.1011792,3.939847 -8.24941567,9.023158 -7.28125,14.28125 0.9681685,5.258046 5.7067072,8.965588 11.892578,10.992188 6.185871,2.0266 14.072791,2.509075 22.408203,1.101562 8.33536,-1.407461 15.578513,-4.443005 20.679688,-8.382812 5.101174,-3.939807 8.247479,-9.025151 7.279297,-14.283204 C 62.463463,21.655975 57.726888,17.950454 51.541016,15.923828 48.448079,14.910515 44.929401,14.282201 41.142578,14.083984 Z m -0.205078,4.00586 c 3.478305,0.182911 6.659496,0.750866 9.357422,1.634765 5.395853,1.767799 8.604402,4.66245 9.203125,7.914063 0.598718,3.251547 -1.364115,6.973535 -5.791016,10.392578 -4.4269,3.419043 -11.12955,6.293329 -18.90039,7.605469 -7.770889,1.312187 -15.100245,0.80879 -20.496094,-0.958985 -5.3958492,-1.767775 -8.6044136,-4.662508 -9.2031251,-7.914062 -0.5987144,-3.251608 1.3641098,-6.9735 5.7910161,-10.392578 4.426905,-3.419078 11.129553,-6.295283 18.90039,-7.607422 3.885419,-0.65607 7.660367,-0.85674 11.138672,-0.673828 z"
     id="path1" />
  <path
     style="baseline-shift:baseline;display:inline;overflow:visible;vector-effect:none;fill:currentColor;enable-background:accumulate;stop-color:currentColor;stop-opacity:1;opacity:1"
     d="M 39.150391,2.9960938 C 35.152545,3.0074433 31.026577,4.927434 27.322266,8.0234375 22.383184,12.151442 17.982436,18.476489 15.076172,26.123047 c -2.906316,7.646609 -3.787257,15.210192 -2.769531,21.443359 1.017725,6.233167 4.071065,11.364892 9.205078,13.154297 5.134007,1.789525 10.824574,-0.247006 15.763672,-4.375 4.939097,-4.127993 9.339828,-10.452998 12.246093,-18.099609 2.906262,-7.646603 3.78529,-15.208239 2.767578,-21.441407 C 51.271351,10.57152 48.217989,5.4378887 43.083984,3.6484375 41.800472,3.2010761 40.483006,2.9923106 39.150391,2.9960938 Z m -0.04687,4.0078124 c 0.936092,-0.00946 1.827774,0.1303914 2.664062,0.421875 3.345095,1.1659289 5.701005,4.6752708 6.574219,10.0234378 0.873214,5.348167 0.126791,12.306356 -2.560547,19.376953 -2.687335,7.070588 -6.787085,12.87134 -11.070313,16.451172 -4.283227,3.579831 -8.53772,4.831991 -11.882812,3.666015 C 19.483038,55.777465 17.127131,52.270033 16.253906,46.921875 15.380681,41.573717 16.127069,34.615513 18.814453,27.544922 21.501789,20.474379 25.6035,14.673595 29.886719,11.09375 33.099133,8.408866 36.295238,7.0322978 39.103516,7.0039062 Z"
     id="path2" />
  <path
     style="baseline-shift:baseline;display:inline;overflow:visible;vector-effect:none;fill:currentColor;enable-background:accumulate;stop-color:currentColor;stop-opacity:1;opacity:1"
     d="M 19.46875,6.2617187 C 16.665062,6.3868554 14.098826,7.2173816 11.992188,8.9101563 7.7788868,12.295726 6.7400716,18.153923 8.0097656,24.34375 c 1.2696941,6.189827 4.7958934,12.998108 10.2500004,19.222656 5.454108,6.224499 11.83535,10.718934 17.935546,12.97461 6.100197,2.255676 12.157775,2.319097 16.371094,-1.066407 C 56.77967,52.08904 57.816561,46.228876 56.546875,40.039062 55.277189,33.849249 51.75293,27.041002 46.298828,20.816406 40.844718,14.591906 34.463489,10.099432 28.363281,7.84375 25.313177,6.7159089 22.272438,6.1365821 19.46875,6.2617187 Z m 0.285156,4.0000003 c 2.117456,-0.08271 4.561282,0.350606 7.220703,1.333984 5.318842,1.966755 11.257916,6.084422 16.316407,11.857422 5.058497,5.773104 8.248176,12.078188 9.33789,17.390625 1.089714,5.312437 0.130577,9.344941 -2.568359,11.513672 -2.698981,2.168696 -7.159687,2.398389 -12.478516,0.43164 -5.318829,-1.966748 -11.255962,-6.08442 -16.314453,-11.857421 -5.058494,-5.773052 -8.250123,-12.078177 -9.339844,-17.390625 -1.089721,-5.312449 -0.1306,-9.344942 2.56836,-11.513672 1.349461,-1.084351 3.140357,-1.68291 5.257812,-1.765625 z"
     id="path3" />
</svg>
